<?xml version="1.0" encoding="utf-8"?>
<!-- Generator: Adobe Illustrator 18.1.1, SVG Export Plug-In . SVG Version: 6.00 Build 0)  -->
<svg version="1.1" id="Layer_1" xmlns="http://www.w3.org/2000/svg" xmlns:xlink="http://www.w3.org/1999/xlink" x="0px" y="0px"
	 viewBox="0 0 221.6 156" enable-background="new 0 0 221.6 156" xml:space="preserve">
<path fill="#48FDBC" d="M141.7,40.4H92.3c-8,0-14.4,6.5-14.4,14.4v28.9c0,7.7,6.2,13.9,13.9,13.9h17.7l-6.3,15.9l28-15.9h10.6
	c8,0,14.4-6.5,14.4-14.4V54.8C156.2,46.9,149.7,40.4,141.7,40.4z M113.6,101.6l3.7-9.2H91.8c-4.8,0-8.7-3.9-8.7-8.7V54.8
	c0-5.1,4.1-9.2,9.2-9.2h49.4c5.1,0,9.2,4.1,9.2,9.2v28.4c0,5.1-4.1,9.2-9.2,9.2h-11.9L113.6,101.6z"/>
</svg>
