<?xml version="1.0" encoding="utf-8"?>
<!-- Generator: Adobe Illustrator 18.1.1, SVG Export Plug-In . SVG Version: 6.00 Build 0)  -->
<svg version="1.1" id="Layer_1" xmlns="http://www.w3.org/2000/svg" xmlns:xlink="http://www.w3.org/1999/xlink" x="0px" y="0px"
	 viewBox="0 0 841.9 595.3" enable-background="new 0 0 841.9 595.3" xml:space="preserve">
<g>
	<path fill="#FFFFFF" d="M113.5,484.4h-6.9v-46.7h15.3c2,0,3.8,0.3,5.6,1c1.8,0.7,3.3,1.6,4.7,2.8c1.3,1.2,2.4,2.7,3.2,4.4
		c0.8,1.7,1.2,3.7,1.2,5.8c0,2.1-0.4,4-1.2,5.8c-0.8,1.7-1.9,3.2-3.2,4.4c-1.3,1.2-2.9,2.2-4.7,2.8c-1.8,0.7-3.6,1-5.6,1h-8.3V484.4
		z M129.4,451.8c0-1.3-0.2-2.5-0.7-3.5c-0.5-1-1.1-1.9-1.8-2.6c-0.7-0.7-1.6-1.2-2.6-1.6c-1-0.4-2-0.5-3-0.5h-7.8v16.3h7.8
		c1,0,2-0.2,3-0.5c1-0.3,1.8-0.9,2.6-1.5c0.7-0.7,1.3-1.5,1.8-2.5C129.2,454.3,129.4,453.1,129.4,451.8z"/>
	<path fill="#FFFFFF" d="M152.3,484.8c-1.2,0-2.3-0.2-3.4-0.5c-1.1-0.3-2-0.8-2.7-1.6c-0.8-0.7-1.4-1.7-1.8-3
		c-0.4-1.2-0.7-2.7-0.7-4.6v-36l6.5-2.5v38.4c0,1.4,0.3,2.4,0.9,3.1c0.6,0.7,1.3,1,2.3,1c0.4,0,0.8,0,1.2-0.1
		c0.3-0.1,0.7-0.1,1.1-0.2l1.9,5c-0.3,0.1-0.6,0.2-1,0.3c-0.4,0.1-0.9,0.2-1.3,0.3c-0.5,0.1-1,0.2-1.5,0.2
		C153.1,484.8,152.7,484.8,152.3,484.8z"/>
	<path fill="#FFFFFF" d="M191,453.7v31.2l-6.1-2.1c-1,0.7-2.3,1.3-3.8,1.8c-1.5,0.5-3.3,0.8-5.3,0.8c-2.4,0-4.5-0.4-6.4-1.2
		s-3.5-1.9-4.8-3.4c-1.3-1.4-2.3-3.1-3-5.1c-0.7-2-1.1-4.1-1.1-6.5c0-2.4,0.4-4.6,1.1-6.6c0.7-2,1.8-3.7,3.1-5.2
		c1.3-1.5,3-2.6,4.9-3.4c1.9-0.8,4-1.2,6.3-1.2c0.9,0,1.8,0.1,2.6,0.2c0.9,0.1,1.7,0.3,2.5,0.5c0.8,0.2,1.5,0.5,2.2,0.8
		c0.7,0.3,1.3,0.6,1.8,0.9L191,453.7z M167.2,469.1c0,1.5,0.2,2.9,0.6,4.2c0.4,1.3,1,2.4,1.9,3.4c0.8,1,1.8,1.7,3,2.3
		c1.2,0.6,2.5,0.8,4.1,0.8c0.8,0,1.6-0.1,2.4-0.2c0.8-0.2,1.5-0.3,2.2-0.6c0.7-0.2,1.3-0.5,1.8-0.8c0.5-0.3,1-0.5,1.3-0.8v-16.7
		c-0.3-0.2-0.8-0.5-1.3-0.8c-0.5-0.3-1.1-0.5-1.8-0.8c-0.7-0.2-1.4-0.4-2.2-0.6c-0.8-0.2-1.6-0.2-2.4-0.2c-1.5,0-2.9,0.3-4.1,0.8
		c-1.2,0.6-2.2,1.3-3,2.3c-0.8,1-1.4,2.1-1.9,3.4C167.4,466.2,167.2,467.6,167.2,469.1z"/>
	<path fill="#FFFFFF" d="M200.9,453.7l5.7,2.3c1.5-1,3-1.7,4.7-2.3c1.7-0.6,3.6-0.9,5.7-0.9c2,0,3.8,0.3,5.3,0.9
		c1.5,0.6,2.8,1.4,3.9,2.4c1,1,1.8,2.2,2.3,3.6c0.5,1.4,0.8,2.9,0.8,4.6v20h-6.5v-19.1c0-1-0.1-1.9-0.4-2.7s-0.7-1.6-1.3-2.1
		s-1.3-1.1-2.2-1.4c-0.9-0.3-1.9-0.5-3.1-0.5c-1.5,0-3,0.3-4.3,0.7c-1.4,0.5-2.6,1.1-3.9,1.9v23.3h-6.5V453.7z"/>
	<path fill="#FFFFFF" d="M246.7,480.5c0,0.7-0.1,1.3-0.4,1.9c-0.3,0.6-0.6,1.1-1,1.5c-0.4,0.4-0.9,0.8-1.5,1
		c-0.6,0.3-1.2,0.4-1.9,0.4c-0.7,0-1.3-0.1-1.9-0.4c-0.6-0.3-1.1-0.6-1.5-1c-0.4-0.4-0.8-0.9-1-1.5c-0.3-0.6-0.4-1.2-0.4-1.9
		c0-0.7,0.1-1.3,0.4-1.9c0.2-0.6,0.6-1.1,1-1.5c0.4-0.4,0.9-0.8,1.5-1c0.6-0.3,1.2-0.4,1.9-0.4c0.7,0,1.3,0.1,1.9,0.4
		c0.6,0.3,1.1,0.6,1.5,1c0.4,0.4,0.8,0.9,1,1.5C246.6,479.2,246.7,479.9,246.7,480.5z"/>
	<path fill="#FFFFFF" d="M307.7,449.9c0,2.1-0.4,4.1-1.2,5.9c-0.8,1.9-2,3.5-3.5,4.9c-1.5,1.4-3.4,2.5-5.7,3.3s-4.8,1.2-7.7,1.2h-8
		l-3.4,19.2h-5.5l8.2-46.7h12.9c2,0,3.9,0.3,5.6,0.9c1.7,0.6,3.2,1.4,4.4,2.4c1.2,1.1,2.2,2.3,2.9,3.8
		C307.4,446.3,307.7,448,307.7,449.9z M290,460.4c2.1,0,3.9-0.3,5.4-0.8c1.5-0.6,2.8-1.3,3.7-2.2c1-0.9,1.7-2,2.2-3.3
		c0.5-1.2,0.7-2.5,0.7-3.9c0-1.4-0.3-2.5-0.8-3.5c-0.5-1-1.2-1.8-2-2.4c-0.8-0.6-1.8-1.1-2.8-1.3c-1.1-0.3-2.1-0.4-3.2-0.4h-7.6
		l-3.2,17.9H290z"/>
	<path fill="#FFFFFF" d="M331.1,458.6c-0.5-0.2-1-0.3-1.6-0.4c-0.6-0.1-1.2-0.2-1.8-0.2c-0.9,0-1.8,0.1-2.7,0.4
		c-0.9,0.3-1.7,0.6-2.5,1c-0.8,0.4-1.5,0.8-2.1,1.2c-0.6,0.4-1.1,0.7-1.5,1l-4,22.8h-5.2L315,454l4.3,2.4c0.4-0.3,0.9-0.6,1.6-1
		c0.7-0.4,1.4-0.8,2.3-1.1c0.9-0.3,1.9-0.6,2.9-0.9c1.1-0.2,2.3-0.4,3.5-0.4c0.8,0,1.5,0.1,2.3,0.2c0.8,0.1,1.4,0.3,2,0.5
		L331.1,458.6z"/>
	<path fill="#FFFFFF" d="M339.2,470.6c0,0.1,0,0.2,0,0.3c0,0.1,0,0.2,0,0.3c0,0.1,0,0.2,0,0.3c0,1.4,0.2,2.7,0.6,3.8
		c0.4,1.1,1,2.1,1.8,2.9c0.8,0.8,1.8,1.5,2.9,1.9c1.2,0.4,2.5,0.7,4,0.7c1.3,0,2.7-0.2,4-0.5c1.4-0.4,2.6-0.8,3.8-1.4l1.6,3.9
		c-0.7,0.3-1.4,0.7-2.2,1s-1.7,0.5-2.6,0.7c-0.9,0.2-1.8,0.4-2.7,0.5c-0.9,0.1-1.8,0.2-2.7,0.2c-2.2,0-4.2-0.3-5.9-1
		c-1.7-0.7-3.2-1.7-4.3-2.9c-1.2-1.2-2.1-2.7-2.6-4.3c-0.6-1.7-0.9-3.5-0.9-5.5c0-2.4,0.4-4.7,1.2-6.9c0.8-2.2,1.9-4.2,3.4-5.9
		c1.5-1.7,3.3-3.1,5.4-4.1c2.1-1,4.5-1.5,7.2-1.5c1.8,0,3.4,0.2,4.7,0.7c1.4,0.5,2.5,1.1,3.5,1.9c0.9,0.8,1.6,1.7,2.1,2.8
		c0.5,1.1,0.7,2.2,0.7,3.4c0,1.2-0.2,2.3-0.6,3.2c-0.4,0.9-1,1.7-1.7,2.4c-0.7,0.7-1.6,1.3-2.5,1.7c-1,0.5-2,0.8-3.2,1.1
		s-2.3,0.5-3.5,0.6c-1.2,0.1-2.5,0.2-3.7,0.2c-1.5,0-2.9-0.1-4.1-0.2C341.5,470.9,340.3,470.7,339.2,470.6z M350.8,457.2
		c-1.5,0-2.9,0.3-4.1,0.8c-1.2,0.6-2.3,1.3-3.2,2.2c-0.9,0.9-1.7,1.9-2.2,3c-0.6,1.1-1,2.2-1.3,3.2c0.4,0.1,0.9,0.2,1.4,0.3
		c0.6,0.1,1.2,0.1,1.8,0.2c0.6,0,1.3,0.1,1.9,0.1c0.7,0,1.2,0.1,1.8,0.1c1.6,0,3-0.1,4.3-0.3c1.3-0.2,2.4-0.6,3.3-1
		c0.9-0.4,1.6-1,2.1-1.6c0.5-0.6,0.7-1.3,0.7-2.1c0-0.5-0.1-1-0.3-1.6c-0.2-0.6-0.6-1.1-1.1-1.6c-0.5-0.5-1.2-0.9-2-1.2
		C353,457.4,352,457.2,350.8,457.2z"/>
	<path fill="#FFFFFF" d="M378.5,453c0.8,0,1.7,0.1,2.6,0.2c0.9,0.2,1.8,0.4,2.7,0.6c0.9,0.2,1.8,0.5,2.6,0.8
		c0.8,0.3,1.6,0.6,2.2,0.9l-1.9,4.3c-1.2-0.7-2.6-1.3-4.1-1.8c-1.5-0.5-2.9-0.8-4.2-0.8c-2,0-3.5,0.4-4.5,1.1
		c-1,0.7-1.5,1.7-1.5,2.8c0,1.1,0.3,1.9,1,2.6c0.6,0.6,1.4,1.2,2.4,1.6l4.8,2.5c1.8,0.9,3.2,2,4.3,3.3c1.1,1.3,1.6,2.9,1.6,4.8
		c0,1.4-0.3,2.7-0.9,3.8c-0.6,1.1-1.4,2.1-2.5,2.9c-1.1,0.8-2.3,1.4-3.8,1.8c-1.5,0.4-3.1,0.6-4.9,0.6c-2.3,0-4.5-0.3-6.5-0.9
		c-2-0.6-3.6-1.4-4.8-2.3l2.1-4.3c0.4,0.3,1,0.7,1.7,1c0.7,0.4,1.4,0.7,2.2,1s1.7,0.6,2.6,0.8c0.9,0.2,1.9,0.3,2.9,0.3
		c0.7,0,1.4-0.1,2.2-0.2c0.8-0.2,1.5-0.4,2.1-0.8c0.6-0.4,1.2-0.8,1.6-1.4c0.4-0.6,0.7-1.3,0.7-2.2s-0.3-1.7-1-2.4
		c-0.7-0.7-1.7-1.4-3-2.1l-4.3-2.3c-1.6-0.9-3-1.9-4.1-3.1s-1.6-2.7-1.6-4.6c0-1,0.2-2,0.6-3c0.4-1.1,1.1-2,2-2.8
		c0.9-0.8,2.1-1.5,3.5-2.1C374.6,453.3,376.4,453,378.5,453z"/>
	<path fill="#FFFFFF" d="M398,470.6c0,0.1,0,0.2,0,0.3c0,0.1,0,0.2,0,0.3c0,0.1,0,0.2,0,0.3c0,1.4,0.2,2.7,0.6,3.8
		c0.4,1.1,1,2.1,1.8,2.9c0.8,0.8,1.8,1.5,2.9,1.9c1.2,0.4,2.5,0.7,4,0.7c1.3,0,2.7-0.2,4-0.5c1.4-0.4,2.6-0.8,3.8-1.4l1.6,3.9
		c-0.7,0.3-1.4,0.7-2.2,1c-0.8,0.3-1.7,0.5-2.6,0.7c-0.9,0.2-1.8,0.4-2.7,0.5c-0.9,0.1-1.8,0.2-2.7,0.2c-2.2,0-4.2-0.3-5.9-1
		c-1.7-0.7-3.2-1.7-4.3-2.9c-1.2-1.2-2.1-2.7-2.6-4.3c-0.6-1.7-0.9-3.5-0.9-5.5c0-2.4,0.4-4.7,1.2-6.9c0.8-2.2,1.9-4.2,3.4-5.9
		c1.5-1.7,3.3-3.1,5.4-4.1c2.1-1,4.5-1.5,7.2-1.5c1.8,0,3.4,0.2,4.7,0.7c1.4,0.5,2.5,1.1,3.5,1.9c0.9,0.8,1.6,1.7,2.1,2.8
		c0.5,1.1,0.7,2.2,0.7,3.4c0,1.2-0.2,2.3-0.6,3.2c-0.4,0.9-1,1.7-1.7,2.4s-1.6,1.3-2.5,1.7c-1,0.5-2,0.8-3.2,1.1
		c-1.1,0.3-2.3,0.5-3.5,0.6c-1.2,0.1-2.5,0.2-3.7,0.2c-1.5,0-2.9-0.1-4.1-0.2C400.2,470.9,399.1,470.7,398,470.6z M409.6,457.2
		c-1.5,0-2.9,0.3-4.1,0.8c-1.2,0.6-2.3,1.3-3.2,2.2c-0.9,0.9-1.7,1.9-2.2,3c-0.6,1.1-1,2.2-1.3,3.2c0.4,0.1,0.9,0.2,1.4,0.3
		c0.6,0.1,1.2,0.1,1.8,0.2c0.6,0,1.3,0.1,1.9,0.1c0.7,0,1.2,0.1,1.8,0.1c1.6,0,3-0.1,4.3-0.3c1.3-0.2,2.4-0.6,3.3-1
		c0.9-0.4,1.6-1,2.1-1.6c0.5-0.6,0.7-1.3,0.7-2.1c0-0.5-0.1-1-0.3-1.6c-0.2-0.6-0.6-1.1-1.1-1.6c-0.5-0.5-1.2-0.9-2-1.2
		C411.8,457.4,410.8,457.2,409.6,457.2z"/>
	<path fill="#FFFFFF" d="M445.3,453c1.6,0,3,0.2,4.3,0.6c1.3,0.4,2.3,1,3.2,1.8c0.9,0.8,1.6,1.7,2,2.8c0.5,1.1,0.7,2.3,0.7,3.6
		c0,0.7-0.1,1.5-0.2,2.2l-3.6,20.3h-5.2l3.4-19.1c0.1-0.4,0.1-0.9,0.2-1.4c0.1-0.6,0.1-1,0.1-1.4c0-1.5-0.5-2.7-1.4-3.6
		c-0.9-0.9-2.5-1.4-4.5-1.4c-0.9,0-1.8,0.1-2.7,0.3c-0.9,0.2-1.8,0.4-2.7,0.7c-0.9,0.3-1.8,0.7-2.7,1.1c-0.9,0.4-1.7,0.9-2.4,1.3
		l-4.1,23.5h-5.2l5.3-30.4l4.3,2.4c1.8-1.1,3.7-1.9,5.5-2.5C441.3,453.3,443.2,453,445.3,453z"/>
	<path fill="#FFFFFF" d="M472.3,484.8c-1.7,0-3.1-0.2-4.3-0.7c-1.2-0.5-2.1-1.2-2.8-2c-0.7-0.9-1.1-1.9-1.3-3.1
		c-0.2-1.2-0.2-2.6,0.1-4l2.9-16.6h-5.5l2.5-4.3h3.8l1.5-9l5.6-2.1l-1.9,11.1h10.3l-0.8,4.3h-10.3l-3,17.2c-0.3,1.6-0.1,2.8,0.5,3.7
		c0.6,0.9,1.7,1.3,3.4,1.3c0.5,0,0.9,0,1.4-0.1c0.5-0.1,1-0.2,1.4-0.3c0.5-0.1,0.9-0.2,1.3-0.4c0.4-0.2,0.7-0.3,1-0.4l0.7,3.9
		c-0.3,0.2-0.7,0.4-1.3,0.6c-0.5,0.2-1.1,0.4-1.7,0.5c-0.6,0.2-1.2,0.3-1.9,0.4C473.4,484.8,472.8,484.8,472.3,484.8z"/>
	<path fill="#FFFFFF" d="M493.3,480.9c0,0.6-0.1,1.2-0.4,1.7c-0.2,0.5-0.6,1-1,1.4c-0.4,0.4-0.9,0.7-1.4,0.9
		c-0.5,0.2-1.1,0.3-1.7,0.3c-0.6,0-1.2-0.1-1.8-0.3c-0.5-0.2-1-0.5-1.4-0.9c-0.4-0.4-0.7-0.9-1-1.4c-0.2-0.5-0.4-1.1-0.4-1.7
		c0-0.6,0.1-1.2,0.4-1.7c0.2-0.5,0.6-1,1-1.4c0.4-0.4,0.9-0.7,1.4-0.9c0.5-0.2,1.1-0.3,1.8-0.3c0.6,0,1.2,0.1,1.7,0.3
		c0.5,0.2,1,0.5,1.4,0.9c0.4,0.4,0.7,0.9,1,1.4C493.2,479.7,493.3,480.3,493.3,480.9z"/>
	<path fill="#FFFFFF" d="M522.2,437.7h6.9v46.7h-6.9V437.7z"/>
	<path fill="#FFFFFF" d="M540.3,453.7c0.9,0.4,1.9,0.8,2.8,1.2c0.9,0.4,1.9,0.8,2.9,1.1c0.6-0.4,1.3-0.8,2-1.2
		c0.7-0.4,1.4-0.7,2.2-1c0.8-0.3,1.7-0.5,2.6-0.7c0.9-0.2,1.9-0.3,3-0.3c2.3,0,4.3,0.4,5.8,1.1c1.5,0.7,2.7,1.7,3.7,2.9
		c0.7-0.5,1.4-1.1,2.2-1.5c0.8-0.5,1.6-0.9,2.5-1.3c0.9-0.4,1.8-0.6,2.8-0.9c1-0.2,2.1-0.3,3.3-0.3c2,0,3.8,0.3,5.4,0.9
		c1.6,0.6,2.9,1.4,3.9,2.4c1.1,1,1.8,2.2,2.4,3.6c0.5,1.4,0.8,2.9,0.8,4.6v20H582v-19.1c0-1.2-0.2-2.2-0.5-3
		c-0.3-0.8-0.8-1.6-1.5-2.1c-0.6-0.6-1.3-1-2.2-1.3c-0.8-0.3-1.7-0.4-2.7-0.4c-1.4,0-2.8,0.3-4.1,0.8c-1.4,0.5-2.6,1.2-3.7,1.9
		c0.1,0.5,0.2,1,0.2,1.5c0.1,0.5,0.1,1.1,0.1,1.6v20h-6.5v-19.1c0-1.2-0.2-2.2-0.5-3c-0.3-0.9-0.8-1.6-1.4-2.1
		c-0.6-0.6-1.3-1-2.1-1.2c-0.8-0.3-1.7-0.4-2.7-0.4c-1.4,0-2.8,0.2-4.1,0.7c-1.3,0.5-2.5,1.1-3.6,1.9v23.3h-6.5V453.7z"/>
	<path fill="#FFFFFF" d="M598.2,453.7c1,0.3,1.9,0.6,2.9,0.9s1.9,0.6,3,0.8c1.1-0.8,2.4-1.4,4-1.9c1.6-0.5,3.3-0.7,5.2-0.7
		c2.3,0,4.5,0.4,6.4,1.2s3.5,1.9,4.9,3.4c1.3,1.4,2.4,3.1,3.1,5.1c0.7,2,1.1,4.1,1.1,6.5c0,2.3-0.4,4.5-1.1,6.5
		c-0.7,2-1.7,3.7-3.1,5.2c-1.3,1.5-3,2.6-4.9,3.4c-1.9,0.8-4.1,1.2-6.5,1.2c-1.8,0-3.4-0.2-4.8-0.6c-1.4-0.4-2.6-0.9-3.6-1.5v14.9
		h-6.5V453.7z M612.3,479.8c1.5,0,2.9-0.3,4.1-0.8c1.2-0.6,2.2-1.3,3-2.3c0.8-1,1.5-2.1,1.9-3.4c0.4-1.3,0.6-2.7,0.6-4.2
		c0-1.5-0.2-2.9-0.6-4.2c-0.4-1.3-1-2.4-1.9-3.4c-0.8-1-1.8-1.7-3-2.3c-1.2-0.6-2.5-0.8-4.1-0.8c-0.8,0-1.7,0.1-2.4,0.2
		c-0.8,0.2-1.5,0.3-2.2,0.6c-0.7,0.2-1.3,0.5-1.8,0.8c-0.5,0.3-1,0.5-1.3,0.8v16.7c0.3,0.3,0.8,0.5,1.3,0.8c0.5,0.3,1.1,0.5,1.8,0.7
		s1.4,0.4,2.1,0.6C610.6,479.7,611.4,479.8,612.3,479.8z"/>
	<path fill="#FFFFFF" d="M636.4,453.7l5.7,2.3c0.4-0.3,0.9-0.7,1.5-1.1c0.6-0.4,1.3-0.7,2-1s1.6-0.6,2.6-0.8c1-0.2,2-0.3,3.2-0.3
		c0.5,0,1.1,0,1.7,0.1c0.6,0.1,1.2,0.2,1.7,0.3c0.6,0.1,1.1,0.2,1.5,0.4c0.5,0.2,0.9,0.3,1.2,0.5l-2.4,5.8c-0.6-0.3-1.3-0.5-2.1-0.7
		c-0.8-0.2-1.5-0.3-2.3-0.3c-0.9,0-1.7,0.1-2.5,0.3c-0.8,0.2-1.5,0.4-2.2,0.7c-0.7,0.3-1.3,0.6-1.8,0.9c-0.5,0.3-1,0.7-1.3,1v22.6
		h-6.5V453.7z"/>
	<path fill="#FFFFFF" d="M693.3,469.1c0,2.2-0.4,4.3-1.2,6.3c-0.8,2-1.9,3.7-3.3,5.1c-1.4,1.5-3.2,2.6-5.2,3.5
		c-2,0.9-4.3,1.3-6.8,1.3s-4.8-0.4-6.8-1.3c-2-0.9-3.8-2-5.2-3.5c-1.4-1.5-2.5-3.2-3.3-5.1c-0.8-2-1.2-4.1-1.2-6.3
		c0-2.2,0.4-4.3,1.2-6.3c0.8-2,1.9-3.7,3.3-5.2c1.4-1.5,3.2-2.6,5.2-3.5c2-0.9,4.3-1.3,6.8-1.3s4.8,0.4,6.8,1.3c2,0.9,3.8,2,5.2,3.5
		c1.4,1.5,2.5,3.2,3.3,5.2C692.9,464.7,693.3,466.9,693.3,469.1z M666.9,469.1c0,1.5,0.2,2.9,0.7,4.2c0.4,1.3,1.1,2.4,1.9,3.4
		c0.8,1,1.9,1.7,3.1,2.3c1.2,0.6,2.6,0.8,4.2,0.8c1.6,0,3-0.3,4.2-0.8c1.2-0.6,2.3-1.3,3.1-2.3c0.8-1,1.5-2.1,1.9-3.4
		c0.4-1.3,0.7-2.7,0.7-4.2c0-1.5-0.2-2.9-0.7-4.2c-0.4-1.3-1.1-2.4-1.9-3.4c-0.8-1-1.9-1.7-3.1-2.3c-1.2-0.6-2.6-0.8-4.2-0.8
		c-1.6,0-3,0.3-4.2,0.8c-1.2,0.6-2.3,1.3-3.1,2.3c-0.8,1-1.5,2.1-1.9,3.4C667.1,466.2,666.9,467.6,666.9,469.1z"/>
	<path fill="#FFFFFF" d="M697.4,453.8h7.5l8.8,25.1l8.9-25.1h7.3L718,484.4h-8.8L697.4,453.8z"/>
	<path fill="#FFFFFF" d="M750.7,479.8c1.3,0,2.7-0.2,4.2-0.6c1.5-0.4,2.9-0.9,4.1-1.7l2.1,5.1c-0.6,0.4-1.4,0.7-2.2,1
		c-0.8,0.3-1.7,0.6-2.7,0.8c-0.9,0.2-1.9,0.4-2.9,0.6c-1,0.1-2,0.2-3,0.2c-2.7,0-5.1-0.4-7.1-1.3c-2-0.9-3.8-2-5.1-3.5
		c-1.4-1.5-2.4-3.2-3.1-5.2c-0.7-2-1.1-4-1.1-6.2c0-2.2,0.3-4.3,1-6.3c0.7-2,1.7-3.7,3-5.2c1.3-1.5,2.9-2.6,4.8-3.5
		c1.9-0.9,4-1.3,6.3-1.3c1.8,0,3.5,0.3,5.2,0.8c1.7,0.6,3.2,1.4,4.5,2.7c1.3,1.2,2.4,2.8,3.2,4.7c0.8,1.9,1.2,4.2,1.2,6.9v2.3h-22.5
		c0.1,1.4,0.4,2.7,0.8,3.9c0.5,1.2,1.1,2.2,2,3c0.9,0.8,1.9,1.5,3.1,1.9C747.8,479.5,749.2,479.8,750.7,479.8z M756.3,465.4
		c0-1.2-0.2-2.2-0.6-3.1c-0.4-0.9-0.9-1.7-1.6-2.3c-0.7-0.6-1.5-1.1-2.4-1.4c-0.9-0.3-1.9-0.5-2.9-0.5c-1.2,0-2.2,0.2-3.2,0.6
		c-0.9,0.4-1.8,1-2.4,1.7s-1.2,1.5-1.6,2.4c-0.4,0.9-0.7,1.8-0.7,2.7H756.3z"/>
	<path fill="#FFFFFF" d="M778.7,480.5c0,0.7-0.1,1.3-0.4,1.9c-0.3,0.6-0.6,1.1-1,1.5c-0.4,0.4-0.9,0.8-1.5,1
		c-0.6,0.3-1.2,0.4-1.9,0.4s-1.3-0.1-1.9-0.4c-0.6-0.3-1.1-0.6-1.5-1c-0.4-0.4-0.8-0.9-1-1.5c-0.3-0.6-0.4-1.2-0.4-1.9
		c0-0.7,0.1-1.3,0.4-1.9c0.2-0.6,0.6-1.1,1-1.5c0.4-0.4,0.9-0.8,1.5-1c0.6-0.3,1.2-0.4,1.9-0.4s1.3,0.1,1.9,0.4
		c0.6,0.3,1.1,0.6,1.5,1c0.4,0.4,0.8,0.9,1,1.5C778.5,479.2,778.7,479.9,778.7,480.5z"/>
</g>
<g>
	<path fill="#48FDBC" d="M157.2,365.4c-10.7,0-19.8-1.6-27.4-4.7c-7.6-3.1-13.5-7.5-17.9-13c-4.4-5.6-7.2-12.2-8.5-20
		c-1.3-7.8-1.1-16.4,0.5-25.8l18.7-106.2H87.2l16.2-27.7h24.4l9.8-57.5l35.8-13.3L161.2,168h66l-5,27.7H156l-19.2,110.2
		c-1.7,10-0.7,17.8,2.9,23.4c3.6,5.6,10.9,8.4,21.9,8.4c2.9,0,5.9-0.2,9.1-0.7c3.1-0.5,6.1-1.1,9.1-1.8c2.9-0.7,5.7-1.5,8.2-2.5
		c2.6-1,4.8-1.9,6.6-2.7l4.6,25.2c-2.1,1.2-4.8,2.5-8.1,3.6c-3.3,1.2-6.9,2.3-10.8,3.2c-3.9,1-7.8,1.8-11.9,2.4
		C164.2,365.1,160.5,365.4,157.2,365.4z"/>
	<path fill="#FFFFFF" d="M245.8,168.6h127.4l-7.7,28.8h-85.3v52.3H361v28.8h-80.9v55.2h91.7v28.8h-126V168.6z"/>
	<path fill="#FFFFFF" d="M452.9,265.8l-70.3-97.2h41l50.2,72.3l49.5-72.3h39.3l-69,95.9l71.8,98h-41.1l-51.8-72.6L423,362.5h-39.9
		L452.9,265.8z"/>
</g>
</svg>
