<?xml version="1.0" encoding="utf-8"?>
<!-- Generator: Adobe Illustrator 18.1.1, SVG Export Plug-In . SVG Version: 6.00 Build 0)  -->
<svg version="1.1" id="Layer_1" xmlns="http://www.w3.org/2000/svg" xmlns:xlink="http://www.w3.org/1999/xlink" x="0px" y="0px"
	 viewBox="0 0 221.6 156" enable-background="new 0 0 221.6 156" xml:space="preserve">
<path fill="#48FDBC" d="M84.2,114.1c-0.6,0-1.2-0.1-1.8-0.3c-0.4-0.1-0.8-0.3-1.1-0.5c-0.6-0.4-1.1-0.9-1.5-1.5
	c-0.6-0.8-0.9-1.8-0.9-2.9V47.6c0-1.1,0.3-2,0.8-2.9c0.5-0.8,1.2-1.5,2-2c0.2-0.1,0.4-0.2,0.6-0.3c1.4-0.6,3.1-0.6,4.5,0
	c0.2,0.1,0.4,0.2,0.6,0.3l52.2,30.2c0,0,0,0,0,0c0.8,0.5,1.4,1.1,1.9,1.8c0.6,0.9,0.9,2,0.9,3.1c0,1.1-0.3,2.1-0.8,3
	c-0.5,0.8-1.2,1.5-2,2c0,0,0,0,0,0l-53.1,30.6c-0.3,0.1-0.5,0.3-0.8,0.4C85.3,114,84.8,114.1,84.2,114.1z M84.5,47.4
	C84.5,47.4,84.4,47.5,84.5,47.4c-0.1,0.1-0.1,0.2-0.1,0.2v60.8l52.7-30.4c0.1,0,0.1-0.1,0.1-0.1c0,0,0-0.1,0-0.2c0,0,0-0.1,0-0.1
	c0,0-0.1-0.1-0.2-0.2L84.9,47.4C84.7,47.4,84.6,47.4,84.5,47.4z"/>
</svg>
