<?xml version="1.0" encoding="utf-8"?>
<!-- Generator: Adobe Illustrator 18.1.1, SVG Export Plug-In . SVG Version: 6.00 Build 0)  -->
<svg version="1.1" id="Layer_1" xmlns="http://www.w3.org/2000/svg" xmlns:xlink="http://www.w3.org/1999/xlink" x="0px" y="0px"
	 viewBox="0 0 221.6 156" enable-background="new 0 0 221.6 156" xml:space="preserve">
<g>
	<path fill="#48FDBC" d="M91,63c-0.5-0.9-1.5-1.5-2.5-1.5c0,0-0.1,0-0.1,0c-0.6,0-1.3,0.2-1.8,0.5c-1.4,1-1.8,2.9-0.9,4.3
		c1.6,2.5,3.4,6.6,3.4,11.6c0.1,5-1.8,9.1-3.4,11.6c-0.9,1.5-0.5,3.4,0.9,4.3c0.5,0.4,1.1,0.5,1.7,0.5l0,0c1.1,0,2.1-0.5,2.7-1.4
		c3.1-4.8,4.6-9.9,4.6-15C95.6,71.8,93.1,66.4,91,63z"/>
	<path fill="#48FDBC" d="M105.1,51.5c-0.6,0-1.2,0.2-1.7,0.5l-0.2,0.1c-0.7,0.5-1.2,1.2-1.3,2c-0.1,0.8,0,1.6,0.5,2.3
		c5.9,8.1,8.2,16.7,7.1,25.7c-1,7.5-4.3,13.7-6.9,17.5c-0.5,0.7-0.6,1.5-0.5,2.3c0.2,0.8,0.6,1.5,1.3,1.9c0.5,0.4,1.1,0.5,1.7,0.5
		c1,0,2-0.5,2.5-1.4c15.2-22.9,6.5-41.4-0.1-50.3C106.9,52,106,51.5,105.1,51.5z"/>
	<path fill="#48FDBC" d="M136.3,69.8c-2-11.9-7.7-21.3-12.2-27c-0.6-0.7-1.4-1.2-2.4-1.2c-0.6,0-1.2,0.2-1.7,0.5l-0.3,0.2
		c-0.7,0.5-1.1,1.2-1.3,2c-0.1,0.8,0.1,1.7,0.6,2.3c21.7,27.8,7.5,53.3,0.3,63c-0.5,0.7-0.7,1.5-0.5,2.3c0.1,0.8,0.6,1.5,1.3,2
		c0.5,0.3,1.1,0.5,1.7,0.5c0.9,0,1.8-0.4,2.4-1.2C134.6,99.2,138.7,84.6,136.3,69.8z"/>
</g>
</svg>
