<?xml version="1.0" encoding="utf-8"?>
<!-- Generator: Adobe Illustrator 18.1.0, SVG Export Plug-In . SVG Version: 6.00 Build 0)  -->
<svg version="1.1" id="Layer_1" xmlns="http://www.w3.org/2000/svg" xmlns:xlink="http://www.w3.org/1999/xlink" x="0px" y="0px"
	 viewBox="0 0 841.9 595.3" enable-background="new 0 0 841.9 595.3" xml:space="preserve">
<path fill="#48FDBC" d="M604.1,390.9c-1.6,0-3.2-0.2-4.7-0.7c-1-0.3-2-0.8-2.9-1.4c-1.6-1.1-2.9-2.4-4-4c-1.5-2.2-2.3-4.8-2.3-7.6
	V215.7c0-2.8,0.7-5.4,2.1-7.8c1.3-2.2,3.1-4,5.3-5.3c0.6-0.3,1.1-0.6,1.7-0.8c3.7-1.5,8.1-1.5,12,0c0.5,0.2,1.1,0.5,1.6,0.8
	l137.9,79.7c0,0,0.1,0,0.1,0.1c2.1,1.2,3.8,2.9,5.1,4.8c1.6,2.4,2.4,5.2,2.4,8.2c0,2.8-0.7,5.4-2.2,7.8c-1.3,2.2-3.1,3.9-5.3,5.3
	c0,0-0.1,0-0.1,0.1l-140,80.8c-0.7,0.4-1.4,0.7-2.2,1C607.2,390.7,605.7,390.9,604.1,390.9z"/>
<g>
	<path fill="#48FDBC" d="M141.6,394.3c-10.5,0-19.5-1.5-27-4.6c-7.5-3.1-13.3-7.4-17.7-12.8c-4.3-5.5-7.1-12-8.4-19.7
		c-1.3-7.7-1.1-16.2,0.5-25.5l18.5-104.7H72.6l16-27.3h24l9.7-56.7l35.3-13.1l-12.1,69.8h65.1l-4.9,27.3h-65.3l-18.9,108.6
		c-1.6,9.9-0.7,17.6,2.9,23.1c3.6,5.5,10.7,8.3,21.6,8.3c2.9,0,5.9-0.2,8.9-0.7c3.1-0.5,6.1-1.1,8.9-1.7c2.9-0.7,5.6-1.5,8.1-2.5
		c2.5-1,4.7-1.9,6.5-2.7l4.5,24.9c-2.1,1.2-4.7,2.4-8,3.6c-3.3,1.2-6.8,2.2-10.7,3.2c-3.8,1-7.7,1.7-11.7,2.4
		C148.5,393.9,144.9,394.3,141.6,394.3z"/>
	<path fill="#FFFFFF" d="M229,200.1h125.6l-7.6,28.4h-84.1v51.6h79.7v28.4h-79.7V363h90.4v28.4H229V200.1z"/>
	<path fill="#FFFFFF" d="M433.2,296l-69.3-95.9h40.4l49.5,71.3l48.8-71.3h38.8l-68,94.6l70.8,96.7h-40.5l-51.1-71.6l-48.8,71.6
		h-39.3L433.2,296z"/>
</g>
</svg>
